<?xml version="1.0" standalone="no"?>
<!DOCTYPE svg PUBLIC "-//W3C//DTD SVG 20010904//EN"
 "http://www.w3.org/TR/2001/REC-SVG-20010904/DTD/svg10.dtd">
<svg version="1.0" xmlns="http://www.w3.org/2000/svg"
 width="225.000000pt" height="225.000000pt" viewBox="0 0 225.000000 225.000000"
 preserveAspectRatio="xMidYMid meet">

<g transform="translate(0.000000,225.000000) scale(0.100000,-0.100000)"
fill="#000000" stroke="none">
<path d="M445 1481 c-54 -14 -95 -41 -123 -83 l-27 -42 0 -290 0 -291 28 -41
c45 -67 83 -81 225 -88 l124 -5 171 -115 c94 -63 173 -113 175 -111 2 2 -6 51
-18 110 -13 58 -20 109 -16 113 4 4 78 7 164 8 137 1 162 4 197 21 50 26 80
57 100 105 14 36 21 128 9 128 -7 0 -183 -117 -207 -138 -9 -8 -19 -13 -22
-10 -3 3 6 55 19 117 13 61 20 113 16 116 -4 3 -77 7 -161 9 -165 5 -198 12
-242 54 -57 53 -62 73 -67 262 l-5 175 -155 2 c-85 0 -168 -2 -185 -6z"/>
</g>
</svg>
